<svg width="31" height="31" viewBox="0 0 31 31" fill="none" xmlns="http://www.w3.org/2000/svg">
<path fill-rule="evenodd" clip-rule="evenodd" d="M15.5 27.9C18.6826 27.9 21.7348 26.6357 23.9853 24.3853C26.2357 22.1348 27.5 19.0826 27.5 15.9C27.5 12.7174 26.2357 9.66515 23.9853 7.41471C21.7348 5.16428 18.6826 3.89999 15.5 3.89999C12.3174 3.89999 9.26516 5.16428 7.01472 7.41471C4.76428 9.66515 3.5 12.7174 3.5 15.9C3.5 19.0826 4.76428 22.1348 7.01472 24.3853C9.26516 26.6357 12.3174 27.9 15.5 27.9V27.9ZM17 11.4C17 11.0022 16.842 10.6206 16.5607 10.3393C16.2794 10.058 15.8978 9.89999 15.5 9.89999C15.1022 9.89999 14.7206 10.058 14.4393 10.3393C14.158 10.6206 14 11.0022 14 11.4V14.4H11C10.6022 14.4 10.2206 14.558 9.93934 14.8393C9.65804 15.1206 9.5 15.5022 9.5 15.9C9.5 16.2978 9.65804 16.6793 9.93934 16.9607C10.2206 17.242 10.6022 17.4 11 17.4H14V20.4C14 20.7978 14.158 21.1793 14.4393 21.4607C14.7206 21.742 15.1022 21.9 15.5 21.9C15.8978 21.9 16.2794 21.742 16.5607 21.4607C16.842 21.1793 17 20.7978 17 20.4V17.4H20C20.3978 17.4 20.7794 17.242 21.0607 16.9607C21.342 16.6793 21.5 16.2978 21.5 15.9C21.5 15.5022 21.342 15.1206 21.0607 14.8393C20.7794 14.558 20.3978 14.4 20 14.4H17V11.4Z" fill="white"/>
</svg>
