<svg width="31" height="31" viewBox="0 0 31 31" fill="none" xmlns="http://www.w3.org/2000/svg">
<path fill-rule="evenodd" clip-rule="evenodd" d="M13.1148 7.54804C11.5179 7.54804 9.98651 8.18238 8.85738 9.31151C7.72826 10.4406 7.09392 11.9721 7.09392 13.5689C7.09392 15.1657 7.72826 16.6971 8.85738 17.8263C9.98651 18.9554 11.5179 19.5897 13.1148 19.5897C14.7116 19.5897 16.243 18.9554 17.3721 17.8263C18.5013 16.6971 19.1356 15.1657 19.1356 13.5689C19.1356 11.9721 18.5013 10.4406 17.3721 9.31151C16.243 8.18238 14.7116 7.54804 13.1148 7.54804ZM4.0835 13.5689C4.08331 12.1475 4.41862 10.7462 5.06214 9.47884C5.70566 8.2115 6.63923 7.11394 7.78691 6.27543C8.93459 5.43692 10.264 4.88113 11.667 4.65327C13.07 4.42541 14.5069 4.53192 15.861 4.96412C17.215 5.39633 18.448 6.14203 19.4595 7.14058C20.471 8.13913 21.2326 9.36233 21.6822 10.7107C22.1319 12.0591 22.2569 13.4945 22.0472 14.9003C21.8374 16.3061 21.2989 17.6426 20.4752 18.801L25.1748 23.5006C25.449 23.7844 25.6007 24.1647 25.5973 24.5593C25.5938 24.954 25.4355 25.3315 25.1565 25.6106C24.8774 25.8897 24.4999 26.048 24.1052 26.0514C23.7105 26.0548 23.3303 25.9031 23.0464 25.6289L18.3484 20.9309C16.9972 21.8916 15.4077 22.4619 13.754 22.5793C12.1003 22.6966 10.4461 22.3565 8.97287 21.5961C7.49961 20.8358 6.26408 19.6846 5.40164 18.2687C4.53921 16.8528 4.08317 15.2268 4.0835 13.5689Z" fill="#FFA049"/>
</svg>
