<svg width="15" height="15" viewBox="0 0 15 15" fill="none" xmlns="http://www.w3.org/2000/svg">
<path d="M6.66868 2.64985C6.88229 1.99408 7.81005 1.99408 8.02294 2.64985L8.7848 4.99381C8.83135 5.13656 8.92183 5.26095 9.04332 5.34918C9.1648 5.43742 9.31107 5.48499 9.46122 5.4851H11.9262C12.6162 5.4851 12.9024 6.36801 12.3449 6.77386L10.3512 8.2221C10.2295 8.31041 10.1389 8.435 10.0923 8.578C10.0457 8.72101 10.0457 8.87508 10.0921 9.01814L10.8539 11.3621C11.0675 12.0179 10.3164 12.564 9.75742 12.1581L7.76377 10.7099C7.64216 10.6216 7.49574 10.5741 7.34546 10.5741C7.19518 10.5741 7.04876 10.6216 6.92715 10.7099L4.9335 12.1581C4.37527 12.564 3.62481 12.0179 3.8377 11.3621L4.59956 9.01814C4.64597 8.87508 4.64588 8.72101 4.59932 8.578C4.55276 8.435 4.46212 8.31041 4.34038 8.2221L2.34745 6.77457C1.78994 6.36872 2.07688 5.48582 2.76611 5.48582H5.23041C5.38068 5.48585 5.52711 5.43835 5.64874 5.3501C5.77036 5.26186 5.86095 5.13739 5.90754 4.99452L6.6694 2.65056L6.66868 2.64985Z" fill="#FFA049"/>
</svg>
